<?xml version="1.0" standalone="no"?>
<!DOCTYPE svg PUBLIC "-//W3C//DTD SVG 20010904//EN"
 "http://www.w3.org/TR/2001/REC-SVG-20010904/DTD/svg10.dtd">
<svg version="1.0" xmlns="http://www.w3.org/2000/svg"
 width="700.000000pt" height="700.000000pt" viewBox="0 0 700.000000 700.000000"
 preserveAspectRatio="xMidYMid meet">
<metadata>
Created by potrace 1.14, written by Peter Selinger 2001-2017
</metadata>
<g transform="translate(0.000000,700.000000) scale(0.100000,-0.100000)"
fill="#000000" stroke="none">
<path d="M4070 5418 c-19 -5 -50 -24 -67 -41 -72 -68 -24 -177 106 -242 88
-45 201 -51 268 -16 l38 19 96 -51 96 -51 23 -88 c13 -49 20 -91 17 -94 -3 -3
-14 -1 -24 4 -28 15 -100 5 -143 -19 -44 -25 -90 -102 -90 -151 0 -37 25 -97
54 -128 19 -20 71 -120 63 -120 -1 0 -24 7 -51 15 -27 8 -64 15 -83 15 -25 0
-33 4 -33 18 0 11 -9 27 -20 37 -18 17 -24 15 -142 -33 -68 -27 -131 -52 -140
-55 -9 -3 -25 -18 -34 -32 -14 -21 -15 -31 -6 -45 10 -16 7 -20 -21 -30 -18
-6 -68 -14 -112 -16 -137 -8 -235 -39 -314 -98 -19 -14 -37 -24 -40 -21 -4 2
-34 6 -66 10 -33 3 -78 8 -100 10 -22 2 -71 7 -110 10 -38 3 -90 8 -115 11
-25 3 -72 7 -105 10 -33 2 -76 6 -95 9 -19 2 -66 7 -105 10 -38 3 -86 8 -105
10 -19 3 -66 7 -105 10 -38 3 -86 7 -105 10 -46 5 -121 13 -190 19 -30 3 -86
8 -125 12 -95 9 -116 11 -215 19 -47 4 -92 9 -100 10 -8 2 -46 6 -85 9 -38 4
-95 10 -125 13 -114 12 -185 -8 -237 -67 l-28 -31 -155 -3 c-176 -2 -213 -12
-208 -55 5 -39 83 -93 273 -186 320 -157 973 -405 1067 -405 21 0 38 -4 38
-10 0 -5 17 -50 39 -99 l38 -89 -26 1 c-19 2 -27 -3 -29 -18 -2 -15 25 -47 91
-113 95 -93 125 -109 134 -72 3 11 14 20 24 20 35 0 20 -26 -39 -66 -55 -38
-58 -39 -54 -17 3 19 -13 41 -86 113 -88 86 -123 107 -135 76 -3 -7 2 -24 10
-36 22 -31 142 -149 171 -168 22 -14 22 -15 4 -28 -17 -12 -29 -4 -119 87 -72
72 -104 98 -116 93 -36 -13 -17 -49 75 -141 72 -73 88 -94 75 -99 -12 -4 -32
10 -69 52 -99 108 -116 123 -138 117 -11 -3 -20 -13 -20 -23 0 -19 12 -34 102
-128 l60 -63 -57 -41 c-31 -22 -58 -38 -60 -37 -1 2 -12 39 -24 83 -100 367
-389 672 -749 790 -77 25 -88 28 -192 47 -61 10 -242 13 -305 4 -438 -63 -790
-341 -942 -744 -72 -192 -90 -426 -48 -636 63 -317 298 -628 590 -780 73 -38
206 -91 251 -100 174 -35 318 -43 434 -24 30 5 69 11 85 13 108 18 290 96 410
178 117 79 261 230 333 348 59 98 152 332 152 383 0 9 16 12 53 11 44 -1 76
-13 203 -78 l152 -76 123 0 c88 0 132 -4 151 -14 67 -35 198 -37 295 -6 79 26
80 26 109 -10 23 -27 75 -50 114 -50 23 0 100 52 100 67 0 10 64 13 304 13
282 0 305 1 327 19 l23 18 0 369 c1 203 -1 384 -3 402 -2 25 -20 49 -68 97
l-64 65 58 1 c32 1 62 1 67 0 5 -1 43 5 83 14 264 59 453 290 457 560 2 126
-38 314 -78 364 -9 11 -8 13 4 8 8 -3 38 -13 66 -22 36 -11 55 -23 65 -43 8
-15 16 -29 19 -32 7 -7 84 -123 88 -133 2 -4 53 -82 114 -174 91 -137 110
-174 113 -209 2 -33 18 -66 69 -144 36 -55 66 -104 66 -108 0 -4 -25 -32 -56
-62 -105 -103 -205 -257 -250 -383 -53 -149 -72 -358 -48 -520 58 -387 339
-711 719 -830 110 -34 160 -41 305 -41 196 0 285 19 450 97 289 137 503 410
569 729 36 176 15 436 -49 583 -83 192 -169 311 -311 429 -99 83 -265 167
-397 201 -211 54 -453 36 -663 -49 -36 -14 -68 -26 -71 -26 -3 0 -36 48 -73
106 -37 58 -78 110 -91 116 -13 6 -80 99 -160 221 -178 274 -180 277 -161 277
30 0 104 85 127 146 26 67 35 200 19 274 -21 94 -74 171 -142 207 -57 29 -190
28 -270 -3 -17 -6 -18 0 -12 112 l6 119 -108 29 c-59 16 -122 33 -139 38 -28
7 -32 13 -36 52 -3 25 -15 57 -27 72 -74 94 -233 145 -351 112z m-2953 -2228
c0 -229 -3 -300 -12 -300 -7 0 -18 15 -25 33 -7 17 -16 41 -20 52 -12 27 -57
141 -124 314 -43 110 -53 147 -44 153 17 10 72 26 123 34 22 3 41 7 42 8 1 1
15 3 31 4 l29 2 0 -300z m178 284 c71 -13 135 -36 135 -50 0 -18 -87 -214
-104 -234 -24 -26 -56 -98 -56 -123 0 -14 -16 -59 -35 -101 -25 -55 -40 -76
-53 -76 -18 0 -19 14 -18 283 1 155 -3 290 -7 301 -8 17 -5 18 49 12 33 -3 73
-9 89 -12z m-412 -146 c20 -51 65 -169 101 -261 37 -92 66 -170 66 -172 0 -3
-12 -5 -28 -5 -22 0 -62 35 -217 190 l-190 191 40 35 c44 39 163 114 181 114
6 0 27 -42 47 -92z m722 8 c73 -56 75 -59 64 -73 -9 -10 -23 -4 -67 26 -86 57
-87 57 -164 7 l-28 -18 31 71 32 70 46 -26 c25 -15 64 -40 86 -57z m4345 -267
l0 -252 -64 99 c-38 59 -84 149 -111 220 -26 65 -51 124 -56 130 -6 8 1 14 23
19 96 22 144 31 174 33 l34 3 0 -252z m191 226 c28 -8 56 -18 61 -23 5 -5 -26
-86 -72 -191 -44 -100 -80 -184 -80 -186 0 -2 -14 -34 -31 -71 -21 -45 -34
-63 -39 -54 -4 7 -8 134 -8 282 l0 269 58 -6 c32 -4 82 -13 111 -20z m-442
-67 l11 -33 -20 25 c-21 27 -25 40 -11 40 5 0 14 -15 20 -32z m700 -66 l44
-38 -211 -211 c-116 -117 -213 -206 -215 -200 -2 7 12 46 30 87 19 41 44 97
54 124 11 27 29 70 41 95 45 102 66 148 84 193 l19 47 55 -30 c30 -16 75 -46
99 -67z m-4663 51 c-8 -9 -46 18 -40 28 4 6 13 4 25 -7 11 -9 17 -19 15 -21z
m-952 -157 l185 -185 -24 -15 c-14 -9 -28 -16 -32 -16 -5 0 -56 21 -113 46
-58 25 -125 55 -150 66 -25 10 -54 23 -65 28 -11 5 -46 20 -77 34 l-57 25 26
48 c33 60 103 153 114 153 4 0 91 -83 193 -184z m5763 -56 c46 -76 62 -110 53
-110 -5 0 -129 -47 -274 -105 -146 -58 -269 -105 -273 -105 -4 0 87 95 202
210 l210 210 30 -32 c17 -18 40 -49 52 -68z m-1023 22 c60 -62 200 -261 191
-271 -3 -2 -33 9 -67 24 -109 48 -141 62 -230 100 -49 21 -88 40 -88 43 0 22
104 172 120 172 4 0 37 -31 74 -68z m-1424 9 c0 -4 -11 -6 -25 -3 -14 2 -25 6
-25 8 0 2 11 4 25 4 14 0 25 -4 25 -9z m-3418 -132 c209 -91 217 -95 211 -119
-3 -14 -10 -30 -15 -37 -13 -16 -485 -16 -491 1 -6 16 11 132 30 199 12 45 20
58 32 54 9 -2 114 -46 233 -98z m635 64 l29 -28 -27 -22 c-15 -13 -39 -23 -53
-23 l-25 0 21 50 c11 28 22 50 23 50 2 0 16 -12 32 -27z m1413 -33 c-18 -36
-24 -40 -57 -40 -20 0 -33 3 -30 6 7 7 100 73 105 73 1 1 -7 -17 -18 -39z
m-1309 -25 l34 -14 -54 -1 c-46 0 -52 2 -41 15 15 19 19 19 61 0z m2679 5 c0
-5 -12 -10 -27 -9 l-28 1 25 8 c14 4 26 8 28 9 1 1 2 -3 2 -9z m1401 -111
c101 -44 195 -83 208 -86 24 -6 91 -67 91 -83 0 -6 -103 -10 -271 -10 l-271 0
5 53 c8 80 40 207 52 207 1 0 85 -36 186 -81z m1155 -111 l7 -68 -295 0 c-241
0 -297 3 -301 14 -4 9 8 17 36 26 23 7 60 20 82 30 22 10 123 51 225 90 102
40 189 77 195 82 14 12 43 -88 51 -174z m-5767 -20 c6 -17 10 -32 9 -34 -2 -1
-106 -43 -233 -92 -157 -62 -232 -86 -236 -79 -19 36 -52 221 -41 232 3 3 114
5 248 5 l242 0 11 -32z m3210 -80 c-1 -48 -4 -88 -8 -89 -18 -3 -241 -3 -241
-1 0 2 22 24 49 48 27 25 62 64 76 87 26 41 30 43 76 43 l50 0 -2 -88z m-3150
-5 c22 -18 21 -19 -163 -203 -102 -102 -189 -183 -193 -181 -38 22 -153 206
-137 220 5 4 47 22 94 40 184 71 316 122 335 131 30 13 41 12 64 -7z m4871 8
c0 -3 -116 -52 -258 -108 l-257 -101 -16 51 c-9 29 -19 77 -23 108 l-7 55 281
1 c154 0 280 -3 280 -6z m835 -49 c-14 -115 -35 -178 -57 -174 -21 3 -501 211
-511 221 -4 4 123 8 284 8 l291 0 -7 -55z m-5605 2 c0 -3 -86 -204 -115 -269
-7 -16 -34 -77 -59 -134 -26 -58 -48 -107 -50 -109 -9 -8 -103 49 -169 104
l-37 30 195 196 c152 153 200 195 215 191 11 -3 20 -7 20 -9z m67 -293 c0
-269 -2 -299 -16 -296 -9 1 -38 6 -66 9 -56 8 -156 35 -167 45 -6 5 73 199
136 336 8 17 31 69 51 118 21 48 43 87 50 87 10 0 13 -64 12 -299z m86 257 c8
-24 56 -148 106 -277 50 -129 91 -235 91 -237 0 -8 -148 -36 -205 -38 l-30 -1
-1 298 c-1 230 2 297 12 297 7 0 19 -19 27 -42z m276 -148 c105 -104 191 -194
191 -199 0 -20 -202 -151 -233 -151 -3 0 -11 17 -18 38 -6 20 -15 42 -19 47
-4 6 -11 21 -15 35 -4 14 -32 88 -62 165 -56 147 -60 157 -86 218 l-17 37 35
0 c31 0 51 -17 224 -190z m91 154 c36 -17 109 -50 163 -74 53 -23 100 -46 102
-50 9 -15 -50 -109 -108 -174 l-27 -31 -183 183 -182 184 85 -4 c69 -3 97 -9
150 -34z m324 9 c-11 -43 -33 -93 -42 -93 -4 0 -68 27 -142 60 l-135 60 163 0
162 0 -6 -27z m854 2 c6 -13 8 -27 3 -29 -11 -7 -59 7 -106 32 l-40 21 66 1
c60 0 67 -2 77 -25z m3101 8 c-8 -9 -99 -102 -203 -207 l-189 -190 -35 40
c-45 52 -107 163 -96 173 5 4 47 23 94 40 47 18 94 37 105 42 97 41 304 119
319 119 16 0 17 -2 5 -17z m511 -105 c63 -27 141 -62 173 -75 31 -14 57 -30
57 -35 0 -29 -122 -189 -135 -177 -16 15 -345 342 -364 362 -12 14 -20 30 -17
36 7 10 40 -3 286 -111z m-516 -9 c-20 -46 -46 -106 -58 -134 -13 -27 -46
-105 -76 -172 l-53 -122 -31 16 c-34 17 -88 55 -124 87 l-23 20 198 198 c108
108 199 196 200 194 2 -2 -13 -41 -33 -87z m396 -113 c104 -104 190 -192 190
-196 0 -20 -144 -118 -180 -123 -18 -2 -32 28 -120 247 -54 138 -96 254 -93
259 3 4 7 7 9 5 1 -2 89 -88 194 -192z m-290 -113 l0 -275 -57 7 c-101 11
-206 43 -199 60 16 40 180 416 192 439 8 16 14 35 14 41 0 8 9 10 25 7 l25 -4
0 -275z m56 260 c3 -10 10 -27 15 -38 7 -16 132 -334 170 -432 8 -21 4 -24
-44 -38 -29 -8 -80 -17 -114 -21 l-62 -6 1 269 c0 147 2 271 5 276 8 13 23 7
29 -10z"/>
</g>
</svg>
